<svg xmlns="http://www.w3.org/2000/svg" width="1100" height="720" viewBox="0 0 1100 720">
<rect x="0.0" y="0.0" width="1100.0" height="720.0" fill="#ffffff" opacity="1.00"/>
<text x="32.0" y="38.0" font-family="Arial, sans-serif" font-size="22" text-anchor="start" fill="#172026">Part 4 dynamic run 2</text>
<text x="32.0" y="62.0" font-family="Arial, sans-serif" font-size="12" text-anchor="start" fill="#4b5b63">mcperf p95 latency and target QPS; batch execution intervals below</text>
<line x1="78.0" y1="330.0" x2="1040.0" y2="330.0" stroke="#9aa7ad" stroke-width="1.0"/>
<line x1="78.0" y1="82.0" x2="78.0" y2="330.0" stroke="#9aa7ad" stroke-width="1.0"/>
<text x="78.0" y="68.0" font-family="Arial, sans-serif" font-size="12" text-anchor="start" fill="#4b5b63">p95 latency (us)</text>
<line x1="78.0" y1="108.6" x2="1040.0" y2="108.6" stroke="#cc3d3d" stroke-width="1.4" stroke-dasharray="6 5"/>
<text x="1036.0" y="100.6" font-family="Arial, sans-serif" font-size="12" text-anchor="end" fill="#cc3d3d">0.8 ms SLO</text>
<polyline points="78.0,135.1 86.1,173.8 94.2,107.0 102.3,129.6 110.3,159.9 118.4,118.5 126.5,196.5 134.6,105.3 142.7,195.4 150.8,160.3 158.8,129.1 166.9,207.7 175.0,276.8 183.1,160.4 191.2,154.4 199.3,168.4 207.3,137.5 215.4,263.0 223.5,151.8 231.6,126.2 239.7,198.2 247.8,154.3 255.8,288.4 263.9,263.9 272.0,138.4 280.1,143.6 288.2,121.1 296.3,211.2 304.4,136.9 312.4,250.6 320.5,294.9 328.6,221.7 336.7,230.8 344.8,222.7 352.9,295.8 360.9,283.9 369.0,317.2 377.1,221.9 385.2,260.8 393.3,118.2 401.4,239.6 409.4,277.4 417.5,218.5 425.6,139.6 433.7,231.9 441.8,288.4 449.9,140.2 457.9,266.0 466.0,157.9 474.1,178.6 482.2,318.2 490.3,193.8 498.4,170.4 506.5,245.2 514.5,135.2 522.6,129.6 530.7,175.3 538.8,197.3 546.9,123.2 555.0,116.6 563.0,312.0 571.1,138.1 579.2,313.9 587.3,182.3 595.4,276.9 603.5,173.6 611.5,236.1 619.6,192.5 627.7,216.5 635.8,202.1 643.9,298.7 652.0,234.8 660.1,252.3 668.1,215.5 676.2,188.7 684.3,302.5 692.4,255.1 700.5,121.0 708.6,235.7 716.6,241.3 724.7,190.6 732.8,239.8 740.9,246.4 749.0,115.7 757.1,218.8 765.1,104.5 773.2,135.1 781.3,185.1 789.4,201.0 797.5,300.1 805.6,236.2 813.6,190.4 821.7,265.0 829.8,261.8 837.9,121.0 846.0,110.2 854.1,116.7 862.2,120.7 870.2,310.6 878.3,177.1 886.4,108.2 894.5,282.0 902.6,240.0 910.7,282.3 918.7,208.3 926.8,118.6 934.9,133.2 943.0,198.7 951.1,106.6 959.2,206.2 967.2,135.6 975.3,223.7 983.4,209.9 991.5,316.3 999.6,285.3 1007.7,270.1 1015.7,287.9 1023.8,264.5 1031.9,283.0 1040.0,236.0" fill="none" stroke="#7b61b5" stroke-width="1.6"/>
<polyline points="78.0,110.8 86.1,223.0 94.2,222.2 102.3,223.1 110.3,222.9 118.4,222.2 126.5,224.0 134.6,221.5 142.7,222.6 150.8,222.2 158.8,222.6 166.9,224.3 175.0,234.2 183.1,222.9 191.2,223.4 199.3,222.9 207.3,222.7 215.4,229.7 223.5,223.7 231.6,222.2 239.7,223.5 247.8,223.0 255.8,235.0 263.9,227.6 272.0,219.3 280.1,222.7 288.2,221.1 296.3,223.6 304.4,221.2 312.4,227.0 320.5,237.5 328.6,222.2 336.7,225.5 344.8,223.3 352.9,239.2 360.9,234.8 369.0,249.4 377.1,222.5 385.2,229.2 393.3,222.6 401.4,227.2 409.4,234.0 417.5,224.8 425.6,223.7 433.7,226.5 441.8,236.9 449.9,223.3 457.9,230.8 466.0,223.0 474.1,222.8 482.2,248.5 490.3,223.5 498.4,223.1 506.5,227.2 514.5,222.4 522.6,222.3 530.7,223.1 538.8,223.7 546.9,222.0 555.0,221.9 563.0,246.1 571.1,222.6 579.2,246.0 587.3,222.4 595.4,232.8 603.5,222.4 611.5,225.9 619.6,222.5 627.7,224.5 635.8,223.3 643.9,238.9 652.0,225.3 660.1,227.4 668.1,223.6 676.2,222.5 684.3,241.4 692.4,227.0 700.5,221.3 708.6,226.0 716.6,225.2 724.7,222.7 732.8,226.2 740.9,224.8 749.0,219.6 757.1,222.3 765.1,215.8 773.2,221.7 781.3,222.8 789.4,223.1 797.5,241.0 805.6,225.5 813.6,221.8 821.7,229.9 829.8,227.7 837.9,215.7 846.0,220.3 854.1,220.9 862.2,221.5 870.2,244.9 878.3,223.4 886.4,222.1 894.5,235.1 902.6,226.9 910.7,235.2 918.7,224.3 926.8,221.5 934.9,223.1 943.0,223.7 951.1,221.5 959.2,223.7 967.2,222.2 975.3,224.9 983.4,223.5 991.5,247.4 999.6,234.1 1007.7,228.6 1015.7,234.7 1023.8,226.5 1031.9,231.0 1040.0,219.1" fill="none" stroke="#1c7c8c" stroke-width="2.2"/>
<text x="860.0" y="100.0" font-family="Arial, sans-serif" font-size="12" text-anchor="start" fill="#1c7c8c">p95 latency</text>
<text x="952.0" y="100.0" font-family="Arial, sans-serif" font-size="12" text-anchor="start" fill="#7b61b5">target QPS</text>
<line x1="73.0" y1="330.0" x2="78.0" y2="330.0" stroke="#9aa7ad" stroke-width="1.0"/>
<text x="68.0" y="334.0" font-family="Arial, sans-serif" font-size="11" text-anchor="end" fill="#4b5b63">0</text>
<line x1="73.0" y1="219.3" x2="78.0" y2="219.3" stroke="#9aa7ad" stroke-width="1.0"/>
<text x="68.0" y="223.3" font-family="Arial, sans-serif" font-size="11" text-anchor="end" fill="#4b5b63">400</text>
<line x1="73.0" y1="108.6" x2="78.0" y2="108.6" stroke="#9aa7ad" stroke-width="1.0"/>
<text x="68.0" y="112.6" font-family="Arial, sans-serif" font-size="11" text-anchor="end" fill="#4b5b63">800</text>
<line x1="73.0" y1="-2.1" x2="78.0" y2="-2.1" stroke="#9aa7ad" stroke-width="1.0"/>
<text x="68.0" y="1.9" font-family="Arial, sans-serif" font-size="11" text-anchor="end" fill="#4b5b63">1200</text>
<line x1="78.0" y1="630.0" x2="1040.0" y2="630.0" stroke="#9aa7ad" stroke-width="1.0"/>
<text x="78.0" y="430.0" font-family="Arial, sans-serif" font-size="12" text-anchor="start" fill="#4b5b63">batch jobs and memcached core count</text>
<rect x="78.2" y="468.0" width="545.6" height="20.0" fill="#4e79a7" opacity="0.82"/>
<text x="68.0" y="484.0" font-family="Arial, sans-serif" font-size="11" text-anchor="end" fill="#4b5b63">blackscholes</text>
<rect x="624.1" y="608.0" width="149.5" height="20.0" fill="#f28e2b" opacity="0.82"/>
<text x="68.0" y="624.0" font-family="Arial, sans-serif" font-size="11" text-anchor="end" fill="#4b5b63">vips</text>
<rect x="773.9" y="440.0" width="31.1" height="20.0" fill="#59a14f" opacity="0.82"/>
<text x="68.0" y="456.0" font-family="Arial, sans-serif" font-size="11" text-anchor="end" fill="#4b5b63">barnes</text>
<rect x="805.0" y="580.0" width="87.3" height="20.0" fill="#e15759" opacity="0.82"/>
<text x="68.0" y="596.0" font-family="Arial, sans-serif" font-size="11" text-anchor="end" fill="#4b5b63">streamcluster</text>
<rect x="892.4" y="524.0" width="87.3" height="20.0" fill="#76b7b2" opacity="0.82"/>
<text x="68.0" y="540.0" font-family="Arial, sans-serif" font-size="11" text-anchor="end" fill="#4b5b63">freqmine</text>
<rect x="979.8" y="496.0" width="46.6" height="20.0" fill="#edc948" opacity="0.82"/>
<text x="68.0" y="512.0" font-family="Arial, sans-serif" font-size="11" text-anchor="end" fill="#4b5b63">canneal</text>
<rect x="1026.4" y="552.0" width="13.6" height="20.0" fill="#b07aa1" opacity="0.82"/>
<text x="68.0" y="568.0" font-family="Arial, sans-serif" font-size="11" text-anchor="end" fill="#4b5b63">radix</text>
<polyline points="78.0,490.5 80.2,450.0 212.2,490.5 218.0,450.0 253.0,490.5 260.8,450.0 282.1,490.5 295.7,450.0 520.9,490.5 524.8,450.0 619.9,490.5 626.0,450.0 740.5,490.5 777.8,571.5" fill="none" stroke="#222222" stroke-width="2.0"/>
<text x="1036.0" y="548.0" font-family="Arial, sans-serif" font-size="11" text-anchor="end" fill="#222222">memcached cores</text>
<line x1="78.0" y1="330.0" x2="78.0" y2="335.0" stroke="#9aa7ad" stroke-width="1.0"/>
<text x="78.0" y="352.0" font-family="Arial, sans-serif" font-size="11" text-anchor="middle" fill="#4b5b63">0</text>
<line x1="318.5" y1="330.0" x2="318.5" y2="335.0" stroke="#9aa7ad" stroke-width="1.0"/>
<text x="318.5" y="352.0" font-family="Arial, sans-serif" font-size="11" text-anchor="middle" fill="#4b5b63">29</text>
<line x1="559.0" y1="330.0" x2="559.0" y2="335.0" stroke="#9aa7ad" stroke-width="1.0"/>
<text x="559.0" y="352.0" font-family="Arial, sans-serif" font-size="11" text-anchor="middle" fill="#4b5b63">59</text>
<line x1="799.5" y1="330.0" x2="799.5" y2="335.0" stroke="#9aa7ad" stroke-width="1.0"/>
<text x="799.5" y="352.0" font-family="Arial, sans-serif" font-size="11" text-anchor="middle" fill="#4b5b63">89</text>
<line x1="1040.0" y1="330.0" x2="1040.0" y2="335.0" stroke="#9aa7ad" stroke-width="1.0"/>
<text x="1040.0" y="352.0" font-family="Arial, sans-serif" font-size="11" text-anchor="middle" fill="#4b5b63">119</text>
<text x="559.0" y="372.0" font-family="Arial, sans-serif" font-size="12" text-anchor="middle" fill="#4b5b63">mcperf interval index</text>
</svg>
