<svg xmlns="http://www.w3.org/2000/svg" width="1100" height="720" viewBox="0 0 1100 720">
<rect x="0.0" y="0.0" width="1100.0" height="720.0" fill="#ffffff" opacity="1.00"/>
<text x="32.0" y="38.0" font-family="Arial, sans-serif" font-size="22" text-anchor="start" fill="#172026">Part 4 dynamic run 3</text>
<text x="32.0" y="62.0" font-family="Arial, sans-serif" font-size="12" text-anchor="start" fill="#4b5b63">mcperf p95 latency and target QPS; batch execution intervals below</text>
<line x1="78.0" y1="330.0" x2="1040.0" y2="330.0" stroke="#9aa7ad" stroke-width="1.0"/>
<line x1="78.0" y1="82.0" x2="78.0" y2="330.0" stroke="#9aa7ad" stroke-width="1.0"/>
<text x="78.0" y="68.0" font-family="Arial, sans-serif" font-size="12" text-anchor="start" fill="#4b5b63">p95 latency (us)</text>
<line x1="78.0" y1="108.6" x2="1040.0" y2="108.6" stroke="#cc3d3d" stroke-width="1.4" stroke-dasharray="6 5"/>
<text x="1036.0" y="100.6" font-family="Arial, sans-serif" font-size="12" text-anchor="end" fill="#cc3d3d">0.8 ms SLO</text>
<polyline points="78.0,292.6 86.1,256.4 94.2,203.7 102.3,203.3 110.3,308.3 118.4,177.3 126.5,156.1 134.6,254.6 142.7,122.2 150.8,240.2 158.8,150.0 166.9,306.9 175.0,244.8 183.1,122.0 191.2,238.8 199.3,104.5 207.3,207.8 215.4,211.4 223.5,179.6 231.6,111.7 239.7,277.2 247.8,132.5 255.8,120.7 263.9,188.3 272.0,153.6 280.1,273.5 288.2,143.1 296.3,190.5 304.4,215.9 312.4,310.7 320.5,293.8 328.6,135.0 336.7,248.9 344.8,214.1 352.9,255.0 360.9,255.5 369.0,250.1 377.1,239.8 385.2,155.8 393.3,277.3 401.4,194.4 409.4,224.8 417.5,257.8 425.6,221.3 433.7,222.3 441.8,269.8 449.9,189.8 457.9,126.7 466.0,288.3 474.1,214.1 482.2,211.4 490.3,304.4 498.4,167.0 506.5,236.1 514.5,224.4 522.6,310.5 530.7,223.5 538.8,286.8 546.9,131.1 555.0,205.9 563.0,275.2 571.1,137.2 579.2,181.7 587.3,128.0 595.4,173.6 603.5,251.5 611.5,260.8 619.6,218.2 627.7,155.3 635.8,201.6 643.9,259.1 652.0,222.1 660.1,203.8 668.1,309.9 676.2,135.9 684.3,183.1 692.4,239.6 700.5,158.0 708.6,171.5 716.6,193.7 724.7,306.3 732.8,137.1 740.9,164.8 749.0,247.6 757.1,256.5 765.1,203.4 773.2,190.7 781.3,262.1 789.4,241.0 797.5,199.9 805.6,294.8 813.6,127.1 821.7,156.2 829.8,223.0 837.9,121.1 846.0,159.7 854.1,196.8 862.2,235.6 870.2,115.2 878.3,297.0 886.4,161.2 894.5,307.1 902.6,175.6 910.7,130.3 918.7,187.9 926.8,108.4 934.9,217.7 943.0,203.4 951.1,212.9 959.2,309.0 967.2,302.1 975.3,243.7 983.4,271.0 991.5,189.8 999.6,140.8 1007.7,115.4 1015.7,139.4 1023.8,132.1 1031.9,159.0 1040.0,151.0" fill="none" stroke="#7b61b5" stroke-width="1.6"/>
<polyline points="78.0,229.1 86.1,223.9 94.2,220.0 102.3,223.0 110.3,242.3 118.4,222.9 126.5,222.2 134.6,228.5 142.7,222.0 150.8,226.8 158.8,223.1 166.9,243.8 175.0,224.3 183.1,222.2 191.2,227.1 199.3,221.5 207.3,224.9 215.4,225.1 223.5,223.9 231.6,222.6 239.7,233.9 247.8,222.5 255.8,222.9 263.9,223.9 272.0,222.8 280.1,232.6 288.2,223.0 296.3,224.0 304.4,225.3 312.4,245.4 320.5,238.0 328.6,219.5 336.7,228.5 344.8,224.7 352.9,228.9 360.9,226.4 369.0,223.0 377.1,221.1 385.2,218.1 393.3,233.2 401.4,222.7 409.4,224.3 417.5,227.8 425.6,224.0 433.7,224.2 441.8,228.4 449.9,221.4 457.9,218.8 466.0,235.4 474.1,223.9 482.2,223.4 490.3,241.7 498.4,222.1 506.5,226.1 514.5,224.3 522.6,244.0 530.7,220.1 538.8,236.0 546.9,221.7 555.0,223.7 563.0,232.7 571.1,222.2 579.2,222.9 587.3,221.8 595.4,223.4 603.5,228.2 611.5,227.5 619.6,219.8 627.7,222.4 635.8,223.0 643.9,229.4 652.0,225.2 660.1,223.9 668.1,244.8 676.2,220.9 684.3,222.9 692.4,226.5 700.5,222.7 708.6,222.7 716.6,223.0 724.7,242.7 732.8,222.0 740.9,222.3 749.0,227.3 757.1,227.0 765.1,218.6 773.2,222.8 781.3,228.9 789.4,224.2 797.5,220.4 805.6,237.5 813.6,221.7 821.7,221.7 829.8,222.8 837.9,220.6 846.0,221.9 854.1,221.0 862.2,225.1 870.2,220.3 878.3,238.2 886.4,221.5 894.5,242.4 902.6,222.4 910.7,222.3 918.7,222.6 926.8,219.9 934.9,223.9 943.0,223.3 951.1,223.2 959.2,242.5 967.2,239.2 975.3,223.3 983.4,231.9 991.5,222.5 999.6,221.0 1007.7,219.7 1015.7,222.6 1023.8,221.6 1031.9,222.0 1040.0,222.0" fill="none" stroke="#1c7c8c" stroke-width="2.2"/>
<text x="860.0" y="100.0" font-family="Arial, sans-serif" font-size="12" text-anchor="start" fill="#1c7c8c">p95 latency</text>
<text x="952.0" y="100.0" font-family="Arial, sans-serif" font-size="12" text-anchor="start" fill="#7b61b5">target QPS</text>
<line x1="73.0" y1="330.0" x2="78.0" y2="330.0" stroke="#9aa7ad" stroke-width="1.0"/>
<text x="68.0" y="334.0" font-family="Arial, sans-serif" font-size="11" text-anchor="end" fill="#4b5b63">0</text>
<line x1="73.0" y1="219.3" x2="78.0" y2="219.3" stroke="#9aa7ad" stroke-width="1.0"/>
<text x="68.0" y="223.3" font-family="Arial, sans-serif" font-size="11" text-anchor="end" fill="#4b5b63">400</text>
<line x1="73.0" y1="108.6" x2="78.0" y2="108.6" stroke="#9aa7ad" stroke-width="1.0"/>
<text x="68.0" y="112.6" font-family="Arial, sans-serif" font-size="11" text-anchor="end" fill="#4b5b63">800</text>
<line x1="73.0" y1="-2.1" x2="78.0" y2="-2.1" stroke="#9aa7ad" stroke-width="1.0"/>
<text x="68.0" y="1.9" font-family="Arial, sans-serif" font-size="11" text-anchor="end" fill="#4b5b63">1200</text>
<line x1="78.0" y1="630.0" x2="1040.0" y2="630.0" stroke="#9aa7ad" stroke-width="1.0"/>
<text x="78.0" y="430.0" font-family="Arial, sans-serif" font-size="12" text-anchor="start" fill="#4b5b63">batch jobs and memcached core count</text>
<rect x="78.1" y="608.0" width="222.1" height="20.0" fill="#4e79a7" opacity="0.82"/>
<text x="68.0" y="624.0" font-family="Arial, sans-serif" font-size="11" text-anchor="end" fill="#4b5b63">vips</text>
<rect x="300.6" y="440.0" width="499.3" height="20.0" fill="#f28e2b" opacity="0.82"/>
<text x="68.0" y="456.0" font-family="Arial, sans-serif" font-size="11" text-anchor="end" fill="#4b5b63">barnes</text>
<rect x="800.0" y="580.0" width="84.5" height="20.0" fill="#59a14f" opacity="0.82"/>
<text x="68.0" y="596.0" font-family="Arial, sans-serif" font-size="11" text-anchor="end" fill="#4b5b63">streamcluster</text>
<rect x="884.5" y="524.0" width="76.6" height="20.0" fill="#e15759" opacity="0.82"/>
<text x="68.0" y="540.0" font-family="Arial, sans-serif" font-size="11" text-anchor="end" fill="#4b5b63">freqmine</text>
<rect x="961.2" y="496.0" width="47.1" height="20.0" fill="#76b7b2" opacity="0.82"/>
<text x="68.0" y="512.0" font-family="Arial, sans-serif" font-size="11" text-anchor="end" fill="#4b5b63">canneal</text>
<rect x="1008.4" y="468.0" width="17.7" height="20.0" fill="#edc948" opacity="0.82"/>
<text x="68.0" y="484.0" font-family="Arial, sans-serif" font-size="11" text-anchor="end" fill="#4b5b63">blackscholes</text>
<rect x="1026.3" y="552.0" width="13.7" height="20.0" fill="#b07aa1" opacity="0.82"/>
<text x="68.0" y="568.0" font-family="Arial, sans-serif" font-size="11" text-anchor="end" fill="#4b5b63">radix</text>
<polyline points="78.0,490.5 89.9,450.0 148.9,490.5 152.8,450.0 255.0,490.5 260.9,450.0 284.5,490.5 302.6,450.0 406.8,490.5 410.7,450.0 467.7,490.5 475.6,450.0 573.9,490.5 581.8,450.0 597.5,490.5 603.4,450.0 725.2,490.5 733.1,450.0 786.2,571.5" fill="none" stroke="#222222" stroke-width="2.0"/>
<text x="1036.0" y="548.0" font-family="Arial, sans-serif" font-size="11" text-anchor="end" fill="#222222">memcached cores</text>
<line x1="78.0" y1="330.0" x2="78.0" y2="335.0" stroke="#9aa7ad" stroke-width="1.0"/>
<text x="78.0" y="352.0" font-family="Arial, sans-serif" font-size="11" text-anchor="middle" fill="#4b5b63">0</text>
<line x1="318.5" y1="330.0" x2="318.5" y2="335.0" stroke="#9aa7ad" stroke-width="1.0"/>
<text x="318.5" y="352.0" font-family="Arial, sans-serif" font-size="11" text-anchor="middle" fill="#4b5b63">29</text>
<line x1="559.0" y1="330.0" x2="559.0" y2="335.0" stroke="#9aa7ad" stroke-width="1.0"/>
<text x="559.0" y="352.0" font-family="Arial, sans-serif" font-size="11" text-anchor="middle" fill="#4b5b63">59</text>
<line x1="799.5" y1="330.0" x2="799.5" y2="335.0" stroke="#9aa7ad" stroke-width="1.0"/>
<text x="799.5" y="352.0" font-family="Arial, sans-serif" font-size="11" text-anchor="middle" fill="#4b5b63">89</text>
<line x1="1040.0" y1="330.0" x2="1040.0" y2="335.0" stroke="#9aa7ad" stroke-width="1.0"/>
<text x="1040.0" y="352.0" font-family="Arial, sans-serif" font-size="11" text-anchor="middle" fill="#4b5b63">119</text>
<text x="559.0" y="372.0" font-family="Arial, sans-serif" font-size="12" text-anchor="middle" fill="#4b5b63">mcperf interval index</text>
</svg>
